<mxfile host="65bd71144e">
    <diagram id="Hp4dVfdLVx2DITK1ITba" name="Página-1">
        <mxGraphModel dx="457" dy="675" grid="1" gridSize="10" guides="1" tooltips="1" connect="1" arrows="1" fold="1" page="0" pageScale="1" pageWidth="827" pageHeight="1169" math="0" shadow="0">
            <root>
                <mxCell id="0"/>
                <mxCell id="1" parent="0"/>
                <mxCell id="2" value="Flujo De Trabajo" style="shape=table;childLayout=tableLayout;startSize=40;collapsible=0;recursiveResize=0;expand=0;fontStyle=1;" parent="1" vertex="1">
                    <mxGeometry x="560" y="-120" width="3580" height="723" as="geometry"/>
                </mxCell>
                <mxCell id="3" value="Cliente" style="shape=tableRow;horizontal=0;startSize=40;swimlaneHead=0;swimlaneBody=0;top=0;left=0;bottom=0;right=0;dropTarget=0;fillColor=none;collapsible=0;recursiveResize=0;expand=0;fontStyle=1;" parent="2" vertex="1">
                    <mxGeometry y="40" width="3580" height="150" as="geometry"/>
                </mxCell>
                <mxCell id="15" value="Planificación" style="swimlane;swimlaneHead=0;swimlaneBody=0;fontStyle=0;connectable=0;fillColor=none;startSize=40;collapsible=0;recursiveResize=0;expand=0;fontStyle=1;" parent="3" vertex="1">
                    <mxGeometry x="40" width="1080" height="150" as="geometry">
                        <mxRectangle width="1080" height="150" as="alternateBounds"/>
                    </mxGeometry>
                </mxCell>
                <mxCell id="63" style="edgeStyle=none;html=1;strokeColor=default;strokeWidth=1;endArrow=classic;endFill=1;" parent="15" source="59" target="60" edge="1">
                    <mxGeometry relative="1" as="geometry"/>
                </mxCell>
                <mxCell id="59" value="Reunión con el cliente" style="shape=ext;double=1;rounded=1;whiteSpace=wrap;html=1;" parent="15" vertex="1">
                    <mxGeometry x="420" y="54.6" width="90" height="165.4" as="geometry"/>
                </mxCell>
                <mxCell id="60" value="" style="shadow=0;dashed=0;html=1;strokeColor=none;fillColor=#4495D1;labelPosition=center;verticalLabelPosition=bottom;verticalAlign=top;align=center;outlineConnect=0;shape=mxgraph.veeam.checked_doc;" parent="15" vertex="1">
                    <mxGeometry x="570" y="59.20000000000001" width="30.8" height="40.8" as="geometry"/>
                </mxCell>
                <mxCell id="61" value="&lt;div style=&quot;text-align: justify;&quot;&gt;&lt;ul&gt;&lt;li&gt;Historias Usuario&lt;/li&gt;&lt;/ul&gt;&lt;/div&gt;" style="text;html=1;align=center;verticalAlign=middle;resizable=0;points=[];autosize=1;strokeColor=none;fillColor=none;" parent="15" vertex="1">
                    <mxGeometry x="570" y="49.60000000000001" width="150" height="60" as="geometry"/>
                </mxCell>
                <mxCell id="4" value="Diseño" style="swimlane;swimlaneHead=0;swimlaneBody=0;fontStyle=0;connectable=0;fillColor=none;startSize=40;collapsible=0;recursiveResize=0;expand=0;fontStyle=1;" parent="3" vertex="1">
                    <mxGeometry x="1120" width="350" height="150" as="geometry">
                        <mxRectangle width="350" height="150" as="alternateBounds"/>
                    </mxGeometry>
                </mxCell>
                <mxCell id="5" value="Codificación" style="swimlane;swimlaneHead=0;swimlaneBody=0;fontStyle=0;connectable=0;fillColor=none;startSize=40;collapsible=0;recursiveResize=0;expand=0;fontStyle=1;" parent="3" vertex="1">
                    <mxGeometry x="1470" width="760" height="150" as="geometry">
                        <mxRectangle width="760" height="150" as="alternateBounds"/>
                    </mxGeometry>
                </mxCell>
                <mxCell id="195" value="Cliente in Situ" style="shape=ext;double=1;rounded=1;whiteSpace=wrap;html=1;" parent="5" vertex="1">
                    <mxGeometry x="570" y="70" width="110" height="140" as="geometry"/>
                </mxCell>
                <mxCell id="6" value="Pruebas" style="swimlane;swimlaneHead=0;swimlaneBody=0;fontStyle=0;connectable=0;fillColor=none;startSize=40;collapsible=0;recursiveResize=0;expand=0;fontStyle=1;" parent="3" vertex="1">
                    <mxGeometry x="2230" width="1350" height="150" as="geometry">
                        <mxRectangle width="1350" height="150" as="alternateBounds"/>
                    </mxGeometry>
                </mxCell>
                <mxCell id="113" value="Pruebas aceptación" style="shape=ext;double=1;rounded=1;whiteSpace=wrap;html=1;" parent="6" vertex="1">
                    <mxGeometry x="250" y="54.599999999999994" width="110" height="82.2" as="geometry"/>
                </mxCell>
                <mxCell id="179" value="&lt;div style=&quot;text-align: justify;&quot;&gt;&lt;ul&gt;&lt;li&gt;Resultado de pruebas de aceptación&lt;/li&gt;&lt;/ul&gt;&lt;/div&gt;" style="text;html=1;align=center;verticalAlign=middle;resizable=0;points=[];autosize=1;strokeColor=none;fillColor=none;" parent="6" vertex="1">
                    <mxGeometry x="490" y="76.80000000000007" width="260" height="60" as="geometry"/>
                </mxCell>
                <mxCell id="203" value="" style="shadow=0;dashed=0;html=1;strokeColor=none;fillColor=#4495D1;labelPosition=center;verticalLabelPosition=bottom;verticalAlign=top;align=center;outlineConnect=0;shape=mxgraph.veeam.checked_doc;" parent="6" vertex="1">
                    <mxGeometry x="470" y="84.65000000000009" width="40" height="44.3" as="geometry"/>
                </mxCell>
                <mxCell id="88" style="edgeStyle=none;html=1;strokeColor=default;strokeWidth=1;endArrow=classic;endFill=1;" parent="3" edge="1">
                    <mxGeometry relative="1" as="geometry">
                        <mxPoint x="850" y="300" as="sourcePoint"/>
                        <mxPoint x="970" y="300" as="targetPoint"/>
                    </mxGeometry>
                </mxCell>
                <mxCell id="7" value="Gestor" style="shape=tableRow;horizontal=0;startSize=40;swimlaneHead=0;swimlaneBody=0;top=0;left=0;bottom=0;right=0;dropTarget=0;fillColor=none;collapsible=0;recursiveResize=0;expand=0;fontStyle=1;" parent="2" vertex="1">
                    <mxGeometry y="190" width="3580" height="134" as="geometry"/>
                </mxCell>
                <mxCell id="16" style="swimlane;swimlaneHead=0;swimlaneBody=0;fontStyle=0;connectable=0;fillColor=none;startSize=0;collapsible=0;recursiveResize=0;expand=0;fontStyle=1;" parent="7" vertex="1">
                    <mxGeometry x="40" width="1080" height="134" as="geometry">
                        <mxRectangle width="1080" height="134" as="alternateBounds"/>
                    </mxGeometry>
                </mxCell>
                <mxCell id="31" value="Inicio" style="ellipse;shape=doubleEllipse;whiteSpace=wrap;html=1;" parent="16" vertex="1">
                    <mxGeometry x="10" y="60" width="70" height="40" as="geometry"/>
                </mxCell>
                <mxCell id="43" value="" style="shadow=0;dashed=0;html=1;strokeColor=none;fillColor=#4495D1;labelPosition=center;verticalLabelPosition=bottom;verticalAlign=top;align=center;outlineConnect=0;shape=mxgraph.veeam.checked_doc;" parent="16" vertex="1">
                    <mxGeometry x="250" y="60" width="30.8" height="40.8" as="geometry"/>
                </mxCell>
                <mxCell id="45" value="&lt;div style=&quot;text-align: justify;&quot;&gt;&lt;ul&gt;&lt;li&gt;Metafora Equipo&lt;/li&gt;&lt;/ul&gt;&lt;/div&gt;" style="text;html=1;align=center;verticalAlign=middle;resizable=0;points=[];autosize=1;strokeColor=none;fillColor=none;" parent="16" vertex="1">
                    <mxGeometry x="240" y="60" width="150" height="60" as="geometry"/>
                </mxCell>
                <mxCell id="8" value="" style="swimlane;swimlaneHead=0;swimlaneBody=0;fontStyle=0;connectable=0;fillColor=none;startSize=0;collapsible=0;recursiveResize=0;expand=0;fontStyle=1;" parent="7" vertex="1">
                    <mxGeometry x="1120" width="350" height="134" as="geometry">
                        <mxRectangle width="350" height="134" as="alternateBounds"/>
                    </mxGeometry>
                </mxCell>
                <mxCell id="85" value="" style="shadow=0;dashed=0;html=1;strokeColor=none;fillColor=#4495D1;labelPosition=center;verticalLabelPosition=bottom;verticalAlign=top;align=center;outlineConnect=0;shape=mxgraph.veeam.checked_doc;" parent="8" vertex="1">
                    <mxGeometry x="180" y="98.30000000000001" width="40" height="44" as="geometry"/>
                </mxCell>
                <mxCell id="86" value="&lt;div style=&quot;text-align: justify;&quot;&gt;&lt;ul&gt;&lt;li&gt;Diagrama flujo&lt;/li&gt;&lt;/ul&gt;&lt;/div&gt;" style="text;html=1;align=center;verticalAlign=middle;resizable=0;points=[];autosize=1;strokeColor=none;fillColor=none;" parent="8" vertex="1">
                    <mxGeometry x="180" y="82.30000000000001" width="140" height="60" as="geometry"/>
                </mxCell>
                <mxCell id="9" value="" style="swimlane;swimlaneHead=0;swimlaneBody=0;fontStyle=0;connectable=0;fillColor=none;startSize=0;collapsible=0;recursiveResize=0;expand=0;fontStyle=1;" parent="7" vertex="1">
                    <mxGeometry x="1470" width="760" height="134" as="geometry">
                        <mxRectangle width="760" height="134" as="alternateBounds"/>
                    </mxGeometry>
                </mxCell>
                <mxCell id="10" value="" style="swimlane;swimlaneHead=0;swimlaneBody=0;fontStyle=0;connectable=0;fillColor=none;startSize=0;collapsible=0;recursiveResize=0;expand=0;fontStyle=1;" parent="7" vertex="1">
                    <mxGeometry x="2230" width="1350" height="134" as="geometry">
                        <mxRectangle width="1350" height="134" as="alternateBounds"/>
                    </mxGeometry>
                </mxCell>
                <mxCell id="11" value="Entrenador" style="shape=tableRow;horizontal=0;startSize=40;swimlaneHead=0;swimlaneBody=0;top=0;left=0;bottom=0;right=0;dropTarget=0;fillColor=none;collapsible=0;recursiveResize=0;expand=0;fontStyle=1;" parent="2" vertex="1">
                    <mxGeometry y="324" width="3580" height="133" as="geometry"/>
                </mxCell>
                <mxCell id="17" style="swimlane;swimlaneHead=0;swimlaneBody=0;fontStyle=0;connectable=0;fillColor=none;startSize=0;collapsible=0;recursiveResize=0;expand=0;fontStyle=1;" parent="11" vertex="1">
                    <mxGeometry x="40" width="1080" height="133" as="geometry">
                        <mxRectangle width="1080" height="133" as="alternateBounds"/>
                    </mxGeometry>
                </mxCell>
                <mxCell id="68" value="&lt;div style=&quot;text-align: justify;&quot;&gt;&lt;ul&gt;&lt;li&gt;Estándares&lt;/li&gt;&lt;li&gt;Sprints&lt;/li&gt;&lt;/ul&gt;&lt;/div&gt;" style="text;html=1;align=center;verticalAlign=middle;resizable=0;points=[];autosize=1;strokeColor=none;fillColor=none;" parent="17" vertex="1">
                    <mxGeometry x="930" y="-12.100000000000001" width="120" height="80" as="geometry"/>
                </mxCell>
                <mxCell id="67" value="" style="shadow=0;dashed=0;html=1;strokeColor=none;fillColor=#4495D1;labelPosition=center;verticalLabelPosition=bottom;verticalAlign=top;align=center;outlineConnect=0;shape=mxgraph.veeam.checked_doc;" parent="17" vertex="1">
                    <mxGeometry x="934.6" y="8.300000000000011" width="30.8" height="40" as="geometry"/>
                </mxCell>
                <mxCell id="38" value="Reunión con el equipo" style="shape=ext;double=1;rounded=1;whiteSpace=wrap;html=1;" parent="17" vertex="1">
                    <mxGeometry x="110" y="-94" width="90" height="470" as="geometry"/>
                </mxCell>
                <mxCell id="12" value="" style="swimlane;swimlaneHead=0;swimlaneBody=0;fontStyle=0;connectable=0;fillColor=none;startSize=0;collapsible=0;recursiveResize=0;expand=0;fontStyle=1;" parent="11" vertex="1">
                    <mxGeometry x="1120" width="350" height="133" as="geometry">
                        <mxRectangle width="350" height="133" as="alternateBounds"/>
                    </mxGeometry>
                </mxCell>
                <mxCell id="70" value="Diseño Simple" style="shape=ext;double=1;rounded=1;whiteSpace=wrap;html=1;" parent="12" vertex="1">
                    <mxGeometry x="20" y="-104" width="110" height="304" as="geometry"/>
                </mxCell>
                <mxCell id="13" value="" style="swimlane;swimlaneHead=0;swimlaneBody=0;fontStyle=0;connectable=0;fillColor=none;startSize=0;collapsible=0;recursiveResize=0;expand=0;fontStyle=1;" parent="11" vertex="1">
                    <mxGeometry x="1470" width="760" height="133" as="geometry">
                        <mxRectangle width="760" height="133" as="alternateBounds"/>
                    </mxGeometry>
                </mxCell>
                <mxCell id="97" value="" style="shadow=0;dashed=0;html=1;strokeColor=none;fillColor=#4495D1;labelPosition=center;verticalLabelPosition=bottom;verticalAlign=top;align=center;outlineConnect=0;shape=mxgraph.veeam.checked_doc;" parent="13" vertex="1">
                    <mxGeometry x="330" y="85" width="40" height="48" as="geometry"/>
                </mxCell>
                <mxCell id="98" value="&lt;div style=&quot;text-align: justify;&quot;&gt;&lt;ul&gt;&lt;li&gt;Código&lt;/li&gt;&lt;/ul&gt;&lt;/div&gt;" style="text;html=1;align=center;verticalAlign=middle;resizable=0;points=[];autosize=1;strokeColor=none;fillColor=none;" parent="13" vertex="1">
                    <mxGeometry x="330" y="79" width="100" height="60" as="geometry"/>
                </mxCell>
                <mxCell id="14" value="" style="swimlane;swimlaneHead=0;swimlaneBody=0;fontStyle=0;connectable=0;fillColor=none;startSize=0;collapsible=0;recursiveResize=0;expand=0;fontStyle=1;" parent="11" vertex="1">
                    <mxGeometry x="2230" width="1350" height="133" as="geometry">
                        <mxRectangle width="1350" height="133" as="alternateBounds"/>
                    </mxGeometry>
                </mxCell>
                <mxCell id="192" style="edgeStyle=none;html=1;entryX=0.009;entryY=0.546;entryDx=0;entryDy=0;entryPerimeter=0;" parent="11" source="68" target="70" edge="1">
                    <mxGeometry relative="1" as="geometry"/>
                </mxCell>
                <mxCell id="18" value="Programador" style="shape=tableRow;horizontal=0;startSize=40;swimlaneHead=0;swimlaneBody=0;top=0;left=0;bottom=0;right=0;dropTarget=0;fillColor=none;collapsible=0;recursiveResize=0;expand=0;fontStyle=1;" parent="2" vertex="1">
                    <mxGeometry y="457" width="3580" height="133" as="geometry"/>
                </mxCell>
                <mxCell id="19" style="swimlane;swimlaneHead=0;swimlaneBody=0;fontStyle=0;connectable=0;fillColor=none;startSize=0;collapsible=0;recursiveResize=0;expand=0;fontStyle=1;" parent="18" vertex="1">
                    <mxGeometry x="40" width="1080" height="133" as="geometry">
                        <mxRectangle width="1080" height="133" as="alternateBounds"/>
                    </mxGeometry>
                </mxCell>
                <mxCell id="64" value="Juego de la planificación" style="shape=ext;double=1;rounded=1;whiteSpace=wrap;html=1;" parent="19" vertex="1">
                    <mxGeometry x="700" y="-237" width="110" height="470" as="geometry"/>
                </mxCell>
                <mxCell id="20" style="swimlane;swimlaneHead=0;swimlaneBody=0;fontStyle=0;connectable=0;fillColor=none;startSize=0;collapsible=0;recursiveResize=0;expand=0;fontStyle=1;" parent="18" vertex="1">
                    <mxGeometry x="1120" width="350" height="133" as="geometry">
                        <mxRectangle width="350" height="133" as="alternateBounds"/>
                    </mxGeometry>
                </mxCell>
                <mxCell id="21" style="swimlane;swimlaneHead=0;swimlaneBody=0;fontStyle=0;connectable=0;fillColor=none;startSize=0;collapsible=0;recursiveResize=0;expand=0;fontStyle=1;" parent="18" vertex="1">
                    <mxGeometry x="1470" width="760" height="133" as="geometry">
                        <mxRectangle width="760" height="133" as="alternateBounds"/>
                    </mxGeometry>
                </mxCell>
                <mxCell id="95" value="Programación" style="shape=ext;double=1;rounded=1;whiteSpace=wrap;html=1;" parent="21" vertex="1">
                    <mxGeometry x="170" y="-80.85" width="110" height="186" as="geometry"/>
                </mxCell>
                <mxCell id="22" style="swimlane;swimlaneHead=0;swimlaneBody=0;fontStyle=0;connectable=0;fillColor=none;startSize=0;collapsible=0;recursiveResize=0;expand=0;fontStyle=1;" parent="18" vertex="1">
                    <mxGeometry x="2230" width="1350" height="133" as="geometry">
                        <mxRectangle width="1350" height="133" as="alternateBounds"/>
                    </mxGeometry>
                </mxCell>
                <mxCell id="104" value="" style="shadow=0;dashed=0;html=1;strokeColor=none;fillColor=#4495D1;labelPosition=center;verticalLabelPosition=bottom;verticalAlign=top;align=center;outlineConnect=0;shape=mxgraph.veeam.checked_doc;" parent="22" vertex="1">
                    <mxGeometry x="-20" y="53" width="40" height="44.3" as="geometry"/>
                </mxCell>
                <mxCell id="105" value="&lt;div style=&quot;text-align: justify;&quot;&gt;&lt;ul&gt;&lt;li&gt;Resultado de pruebas unitarias&lt;/li&gt;&lt;/ul&gt;&lt;/div&gt;" style="text;html=1;align=center;verticalAlign=middle;resizable=0;points=[];autosize=1;strokeColor=none;fillColor=none;" parent="22" vertex="1">
                    <mxGeometry x="-10" y="45.150000000000006" width="230" height="60" as="geometry"/>
                </mxCell>
                <mxCell id="193" style="edgeStyle=none;html=1;entryX=0.965;entryY=0.023;entryDx=0;entryDy=0;entryPerimeter=0;" parent="18" source="104" target="95" edge="1">
                    <mxGeometry relative="1" as="geometry">
                        <Array as="points">
                            <mxPoint x="1980" y="-67"/>
                        </Array>
                    </mxGeometry>
                </mxCell>
                <mxCell id="23" value="Tester" style="shape=tableRow;horizontal=0;startSize=40;swimlaneHead=0;swimlaneBody=0;top=0;left=0;bottom=0;right=0;dropTarget=0;fillColor=none;collapsible=0;recursiveResize=0;expand=0;fontStyle=1;" parent="2" vertex="1">
                    <mxGeometry y="590" width="3580" height="133" as="geometry"/>
                </mxCell>
                <mxCell id="24" style="swimlane;swimlaneHead=0;swimlaneBody=0;fontStyle=0;connectable=0;fillColor=none;startSize=0;collapsible=0;recursiveResize=0;expand=0;fontStyle=1;" parent="23" vertex="1">
                    <mxGeometry x="40" width="1080" height="133" as="geometry">
                        <mxRectangle width="1080" height="133" as="alternateBounds"/>
                    </mxGeometry>
                </mxCell>
                <mxCell id="25" style="swimlane;swimlaneHead=0;swimlaneBody=0;fontStyle=0;connectable=0;fillColor=none;startSize=0;collapsible=0;recursiveResize=0;expand=0;fontStyle=1;" parent="23" vertex="1">
                    <mxGeometry x="1120" width="350" height="133" as="geometry">
                        <mxRectangle width="350" height="133" as="alternateBounds"/>
                    </mxGeometry>
                </mxCell>
                <mxCell id="90" value="Análisis del diseño" style="shape=ext;double=1;rounded=1;whiteSpace=wrap;html=1;" parent="25" vertex="1">
                    <mxGeometry x="20" y="39.349999999999994" width="110" height="50" as="geometry"/>
                </mxCell>
                <mxCell id="189" value="&lt;div style=&quot;text-align: justify;&quot;&gt;&lt;ul&gt;&lt;li&gt;Casos Prueba&lt;/li&gt;&lt;/ul&gt;&lt;/div&gt;" style="text;html=1;align=center;verticalAlign=middle;resizable=0;points=[];autosize=1;strokeColor=none;fillColor=none;" parent="25" vertex="1">
                    <mxGeometry x="200" y="34.349999999999994" width="140" height="60" as="geometry"/>
                </mxCell>
                <mxCell id="92" value="" style="shadow=0;dashed=0;html=1;strokeColor=none;fillColor=#4495D1;labelPosition=center;verticalLabelPosition=bottom;verticalAlign=top;align=center;outlineConnect=0;shape=mxgraph.veeam.checked_doc;" parent="25" vertex="1">
                    <mxGeometry x="180" y="34.349999999999994" width="40" height="48" as="geometry"/>
                </mxCell>
                <mxCell id="94" style="edgeStyle=none;html=1;strokeColor=default;strokeWidth=1;endArrow=classic;endFill=1;" parent="25" source="90" target="92" edge="1">
                    <mxGeometry relative="1" as="geometry"/>
                </mxCell>
                <mxCell id="26" style="swimlane;swimlaneHead=0;swimlaneBody=0;fontStyle=0;connectable=0;fillColor=none;startSize=0;collapsible=0;recursiveResize=0;expand=0;fontStyle=1;" parent="23" vertex="1">
                    <mxGeometry x="1470" width="760" height="133" as="geometry">
                        <mxRectangle width="760" height="133" as="alternateBounds"/>
                    </mxGeometry>
                </mxCell>
                <mxCell id="27" style="swimlane;swimlaneHead=0;swimlaneBody=0;fontStyle=0;connectable=0;fillColor=none;startSize=0;collapsible=0;recursiveResize=0;expand=0;fontStyle=1;" parent="23" vertex="1">
                    <mxGeometry x="2230" width="1350" height="133" as="geometry">
                        <mxRectangle width="1350" height="133" as="alternateBounds"/>
                    </mxGeometry>
                </mxCell>
                <mxCell id="101" value="Realizar Pruebas&lt;br&gt;Unitarias" style="shape=ext;double=1;rounded=1;whiteSpace=wrap;html=1;" parent="27" vertex="1">
                    <mxGeometry x="-55" y="34.349999999999994" width="110" height="50" as="geometry"/>
                </mxCell>
                <mxCell id="102" style="edgeStyle=none;html=1;strokeColor=default;strokeWidth=1;endArrow=classic;endFill=1;entryX=0;entryY=0.5;entryDx=0;entryDy=0;" parent="2" source="97" target="101" edge="1">
                    <mxGeometry relative="1" as="geometry">
                        <Array as="points">
                            <mxPoint x="1880" y="460"/>
                        </Array>
                        <mxPoint x="1940" y="520" as="targetPoint"/>
                    </mxGeometry>
                </mxCell>
                <mxCell id="39" style="edgeStyle=none;html=1;exitX=1;exitY=0.5;exitDx=0;exitDy=0;entryX=-0.018;entryY=0.084;entryDx=0;entryDy=0;entryPerimeter=0;" parent="2" source="31" edge="1" target="38">
                    <mxGeometry relative="1" as="geometry">
                        <mxPoint x="150" y="391" as="targetPoint"/>
                    </mxGeometry>
                </mxCell>
                <mxCell id="62" style="edgeStyle=none;html=1;entryX=0;entryY=0.5;entryDx=0;entryDy=0;strokeColor=default;strokeWidth=1;endArrow=classic;endFill=1;exitX=0.267;exitY=0;exitDx=0;exitDy=0;exitPerimeter=0;" parent="2" source="45" target="59" edge="1">
                    <mxGeometry relative="1" as="geometry">
                        <mxPoint x="310" y="140" as="sourcePoint"/>
                        <Array as="points">
                            <mxPoint x="360" y="210"/>
                        </Array>
                    </mxGeometry>
                </mxCell>
                <mxCell id="100" style="edgeStyle=none;html=1;entryX=0;entryY=0.5;entryDx=0;entryDy=0;strokeColor=default;strokeWidth=1;endArrow=classic;endFill=1;" parent="2" source="92" target="95" edge="1">
                    <mxGeometry relative="1" as="geometry">
                        <Array as="points">
                            <mxPoint x="1470" y="540"/>
                            <mxPoint x="1610" y="460"/>
                        </Array>
                    </mxGeometry>
                </mxCell>
                <mxCell id="190" style="edgeStyle=none;html=1;entryX=0.5;entryY=0;entryDx=0;entryDy=0;" parent="2" source="70" target="90" edge="1">
                    <mxGeometry relative="1" as="geometry"/>
                </mxCell>
                <mxCell id="180" style="edgeStyle=none;html=1;strokeColor=default;strokeWidth=1;startArrow=none;startFill=0;endArrow=classic;endFill=1;" parent="2" source="113" edge="1">
                    <mxGeometry relative="1" as="geometry">
                        <mxPoint x="2690" y="150" as="targetPoint"/>
                    </mxGeometry>
                </mxCell>
                <mxCell id="106" style="edgeStyle=none;html=1;strokeColor=default;strokeWidth=1;endArrow=classic;endFill=1;" parent="2" source="101" target="104" edge="1">
                    <mxGeometry relative="1" as="geometry"/>
                </mxCell>
                <mxCell id="198" style="edgeStyle=none;html=1;" parent="2" source="104" target="195" edge="1">
                    <mxGeometry relative="1" as="geometry"/>
                </mxCell>
                <mxCell id="200" style="edgeStyle=none;html=1;entryX=0.546;entryY=-0.011;entryDx=0;entryDy=0;entryPerimeter=0;" parent="2" source="195" target="95" edge="1">
                    <mxGeometry relative="1" as="geometry">
                        <Array as="points">
                            <mxPoint x="1880" y="280"/>
                        </Array>
                    </mxGeometry>
                </mxCell>
                <mxCell id="202" style="edgeStyle=none;html=1;entryX=0;entryY=0.5;entryDx=0;entryDy=0;" parent="2" source="101" target="113" edge="1">
                    <mxGeometry relative="1" as="geometry">
                        <mxPoint x="2510" y="523.5" as="targetPoint"/>
                    </mxGeometry>
                </mxCell>
                <mxCell id="44" style="edgeStyle=none;html=1;endArrow=classic;endFill=1;exitX=1.024;exitY=0.096;exitDx=0;exitDy=0;exitPerimeter=0;" parent="2" source="38" edge="1" target="43">
                    <mxGeometry relative="1" as="geometry">
                        <mxPoint x="290" y="350" as="targetPoint"/>
                    </mxGeometry>
                </mxCell>
                <mxCell id="84" style="edgeStyle=none;html=1;entryX=0.006;entryY=0.451;entryDx=0;entryDy=0;entryPerimeter=0;strokeColor=default;strokeWidth=1;endArrow=classic;endFill=1;" parent="2" source="60" target="64" edge="1">
                    <mxGeometry relative="1" as="geometry">
                        <Array as="points">
                            <mxPoint x="625" y="238"/>
                        </Array>
                    </mxGeometry>
                </mxCell>
                <mxCell id="87" style="edgeStyle=none;html=1;strokeColor=default;strokeWidth=1;endArrow=classic;endFill=1;exitX=1.018;exitY=0.316;exitDx=0;exitDy=0;exitPerimeter=0;" parent="2" source="70" target="85" edge="1">
                    <mxGeometry relative="1" as="geometry"/>
                </mxCell>
                <mxCell id="99" style="edgeStyle=none;html=1;strokeColor=default;strokeWidth=1;endArrow=classic;endFill=1;exitX=1.008;exitY=0.37;exitDx=0;exitDy=0;exitPerimeter=0;" parent="2" source="95" target="97" edge="1">
                    <mxGeometry relative="1" as="geometry"/>
                </mxCell>
            </root>
        </mxGraphModel>
    </diagram>
</mxfile>